<svg width="512" height="288" viewBox="0 0 512 288" fill="none" xmlns="http://www.w3.org/2000/svg">
<rect width="512" height="288" fill="white"/>
<rect opacity="0.54" x="37" y="181" width="77" height="28" rx="2" fill="#E8E8FC"/>
<rect opacity="0.26" x="382" y="109" width="77" height="28" rx="2" fill="#FFD947"/>
<rect opacity="0.26" x="103" y="29" width="44" height="28" rx="2" fill="#A7F6E9"/>
<path d="M162.073 243.455C169.393 251.001 175.942 255.436 180.957 258.784C229.864 291.439 285.77 282.028 303.054 278.81C330.941 273.62 354.48 269.958 374.706 251.686C420.663 210.165 418.428 123.55 383.31 69.8941C379.147 63.5324 344.083 11.5566 288.055 4.23214C286.685 4.05317 285.663 3.95134 284.767 3.85568C276.1 2.93819 222.391 -1.90535 178.597 34.7859C172.328 40.0377 162.239 49.5109 152.883 63.9603C118.676 116.791 118.568 198.614 162.072 243.455H162.073Z" fill="#E8E8FC"/>
<path d="M287.376 217.139L293.434 271.465H223.156L232.311 217.139H287.376Z" fill="#000093"/>
<path d="M409.664 79.4093V207.439C409.664 217.971 401.271 226.583 390.742 226.855C343.979 228.061 180.426 230.985 135.911 230.329C128.26 230.215 122.062 224.093 121.841 216.445C120.982 186.702 119.588 115.18 124.748 81.9746C125.834 74.9824 131.737 69.7531 138.809 69.5268C177.991 68.273 351.368 64.2934 395.862 65.2922C403.537 65.465 409.664 71.7341 409.664 79.4093Z" fill="#6464FF"/>
<path d="M401.631 78.7861V200.423C401.631 206.572 396.695 211.583 390.546 211.674L142.316 214.742C136.22 214.833 131.224 209.928 131.2 203.832L130.784 83.2809C130.768 78.9219 134.241 75.3496 138.598 75.2437L392.74 70.1091C397.614 69.9908 401.629 73.9096 401.629 78.7851L401.631 78.7861Z" fill="url(#paint0_linear_1143_21248)"/>
<path d="M208.019 282.58H310.874C313.668 282.58 315.767 280.591 315.226 278.454L313.906 273.234C313.509 271.665 311.782 270.512 309.731 270.448L210.575 267.354C208.432 267.287 206.534 268.425 206.067 270.056L203.688 278.37C203.07 280.53 205.179 282.58 208.018 282.58H208.019Z" fill="#000093"/>
<path d="M401.631 78.7861V200.423C401.631 206.572 396.695 211.583 390.546 211.674L142.316 214.742C136.22 214.833 131.224 209.928 131.2 203.832L130.784 83.2809C130.768 78.9219 134.241 75.3496 138.598 75.2437L392.74 70.1091C397.614 69.9908 401.629 73.9096 401.629 78.7851L401.631 78.7861Z" fill="#9999FF"/>
<path d="M130.834 97.3814L130.786 83.254C130.769 78.8949 134.243 75.3361 138.6 75.2301L392.676 70.1027C397.551 69.9844 401.5 73.9094 401.5 78.7849V97.3814H130.834Z" fill="#E8E8FC"/>
<path opacity="0.74" d="M159.917 87.3111C159.553 85.746 160.526 84.1815 162.091 83.8167C163.656 83.4519 165.22 84.425 165.585 85.9901C165.95 87.5552 164.977 89.1197 163.412 89.4845C161.847 89.8493 160.282 88.8762 159.917 87.3111Z" fill="#9999FF"/>
<path opacity="0.74" d="M150.611 88.7087C149.475 87.5723 149.475 85.7299 150.611 84.5936C151.748 83.4572 153.59 83.4572 154.727 84.5936C155.863 85.7299 155.863 87.5723 154.727 88.7087C153.59 89.845 151.748 89.845 150.611 88.7087Z" fill="#9999FF"/>
<path opacity="0.74" d="M141.606 89.2603C140.167 88.5447 139.58 86.7981 140.296 85.3592C141.011 83.9202 142.758 83.3338 144.197 84.0493C145.636 84.7649 146.222 86.5115 145.507 87.9504C144.791 89.3894 143.044 89.9758 141.606 89.2603Z" fill="#9999FF"/>
<path d="M145.914 208.017L384.522 204.577C388.149 204.525 391.062 201.57 391.062 197.943V174.062C391.062 170.687 388.305 167.961 384.93 168L145.762 170.72C143.015 170.751 140.806 172.986 140.806 175.732V202.982C140.806 205.791 143.105 208.057 145.914 208.017Z" fill="#E8E8FC"/>
<path d="M231.817 165.089L384.346 162.895C388.07 162.842 391.062 159.808 391.062 156.082V108.864C391.062 106.196 388.899 104.035 386.233 104.035H232.832C229.77 104.035 227.288 106.517 227.288 109.579V160.626C227.288 163.117 229.326 165.126 231.817 165.09V165.089Z" fill="#E8E8FC"/>
<path d="M145.153 165.154H219.147C221.361 165.154 223.157 163.358 223.157 161.144V109.03C223.157 106.271 220.92 104.034 218.161 104.034H143.82C142.156 104.034 140.807 105.384 140.807 107.048V160.806C140.807 163.207 142.753 165.154 145.154 165.154H145.153Z" fill="#E8E8FC"/>
<path d="M211.523 282.785C211.523 282.785 237.61 280.793 240.149 264.177C242.19 250.822 233.264 265.114 222.085 274.433C221.208 275.164 220.07 273.91 220.884 273.108C228.874 265.228 240.24 252.564 237.469 246.677C233.284 237.79 232.879 242.941 225.567 254.414C218.255 265.886 214.012 265.896 217.792 257.635C221.572 249.375 233.84 241.095 232.467 235.878C231.094 230.662 225.477 224.03 223.39 220.754C221.303 217.479 205.823 228.458 206.6 235.282C207.379 242.107 213.395 251.832 211.364 257.635C209.333 263.438 205.693 252.67 204.201 246.616C202.708 240.561 200.776 237.119 196.959 243.935C193.142 250.75 198.082 259.757 203.138 264.717C208.195 269.677 209.634 274.239 206.96 272.006C204.287 269.773 196.632 262.227 195.612 258.308C194.592 254.389 186.873 270.708 211.523 282.785Z" fill="#9999FF"/>
<path opacity="0.53" d="M212.546 281.768C212.617 281.725 212.663 281.646 212.657 281.558C211.49 261.546 219.439 235.678 219.52 235.419C219.558 235.297 219.49 235.168 219.368 235.13C219.247 235.092 219.117 235.161 219.079 235.282C218.998 235.541 211.024 261.488 212.196 281.585C212.203 281.713 212.312 281.81 212.44 281.802C212.479 281.8 212.515 281.788 212.546 281.769V281.768Z" fill="white"/>
<path d="M210.823 282.604C210.823 282.604 231.112 265.653 223.446 250.494C217.285 238.31 218.332 255.305 214.608 269.534C214.316 270.651 212.643 270.287 212.842 269.15C214.789 257.979 216.704 240.889 210.969 237.674C202.31 232.82 205 237.294 205.72 251.024C206.44 264.753 202.955 267.25 201.216 258.237C199.477 249.223 204.707 235.211 200.515 231.726C196.324 228.242 187.811 226.084 184.17 224.615C180.531 223.146 174.243 241.263 178.889 246.421C183.535 251.577 194.193 256.045 195.929 262.011C197.665 267.976 188.351 261.256 183.569 257.152C178.787 253.048 175.178 251.351 176.039 259.197C176.899 267.042 186.249 271.553 193.32 272.664C200.39 273.775 204.252 276.683 200.743 276.416C197.233 276.148 186.506 274.434 183.367 271.809C180.228 269.184 183.458 287.139 210.823 282.603V282.604Z" fill="#3535F3"/>
<path opacity="0.53" d="M211.068 281.167C211.101 281.09 211.092 280.998 211.036 280.928C198.329 265.152 189.683 239.208 189.597 238.948C189.557 238.826 189.425 238.759 189.302 238.799C189.18 238.839 189.114 238.972 189.154 239.094C189.239 239.355 197.911 265.378 210.671 281.221C210.752 281.322 210.899 281.337 211 281.256C211.03 281.231 211.053 281.201 211.067 281.167H211.068Z" fill="white"/>
<path d="M314 124C295.222 124 280 108.778 280 90C280 71.2223 295.222 56 314 56C332.778 56 348 71.2223 348 90C348 108.778 332.778 124 314 124Z" fill="#3535F3"/>
<path d="M347 90C347 98.8963 343.477 106.975 337.756 112.909C331.752 119.133 323.329 123 314.002 123C304.675 123 296.248 119.129 290.248 112.905C284.518 106.975 281 98.8963 281 90C281 71.7759 295.775 57 314.002 57C332.229 57 347 71.7759 347 90Z" fill="white"/>
<path d="M257.336 82.2689C257.407 82.2678 257.706 82.2946 257.757 82.3439C257.807 82.3933 258.066 82.4612 258.066 82.5322V84.5348C258.066 84.6788 257.721 84.796 257.577 84.7991C251.275 84.937 246.074 90.1066 246.074 96.4415C246.074 102.777 251.241 108.087 257.662 108.087C264.083 108.087 269.279 102.863 269.279 96.4415C269.279 94.19 268.628 92.0259 267.419 90.1498L266.355 91.2164C266.289 91.2832 266.189 91.31 266.097 91.2863C266.006 91.2627 265.933 91.1917 265.908 91.1002L264.492 85.9182C264.467 85.8267 264.492 85.73 264.559 85.6631C264.625 85.5963 264.722 85.5695 264.814 85.5932L270.009 86.9581C270.101 86.9818 270.171 87.0527 270.196 87.1443C270.221 87.2358 270.196 87.3325 270.129 87.3994L269.222 88.3158C270.897 90.7052 271.782 93.5122 271.782 96.4415C271.782 104.258 265.423 110.617 257.606 110.617C249.79 110.617 243.431 104.258 243.431 96.4415C243.431 88.6254 249.644 82.4118 257.337 82.2678L257.336 82.2689Z" fill="#000093"/>
<path d="M366.075 160.808C366.075 160.808 350.167 180.182 344.316 175.514C338.463 170.845 354.263 145.397 354.263 145.397L366.075 160.808Z" fill="#7AEBD9"/>
<path d="M365.424 286.604C365.423 286.509 365.43 286.412 365.453 286.316C366.89 280.619 374.02 277.072 374.02 277.072L376.846 277.293C378.47 282.313 378.261 285.392 378.001 286.763C377.994 286.801 377.982 286.838 377.972 286.875C375.641 287.083 370.844 287.22 365.424 286.603V286.604Z" fill="#3535F3"/>
<path d="M377.982 273.085L376.786 278.846C376.698 279.268 376.373 279.585 375.98 279.622C375.499 279.667 374.815 279.694 374.126 279.592C373.509 279.501 373.079 278.874 373.188 278.2L374.02 273.085H377.982Z" fill="#F7AB20"/>
<path d="M340.395 286.351C340.415 286.308 340.433 286.263 340.463 286.222C341.976 284.107 345.83 279.897 353.445 278.071L357.099 277.956C357.099 277.956 358.726 280.784 358.756 286.021C357.922 286.363 356.308 286.73 353.187 286.817C348.363 286.952 342.641 286.538 340.395 286.351Z" fill="#3535F3"/>
<path d="M357.777 272.421C357.736 272.693 357.236 276.832 357.041 278.437C356.995 278.818 356.719 279.113 356.371 279.155C355.749 279.229 354.742 279.297 353.861 279.116C353.386 279.018 353.042 278.562 353.042 278.031V271.535L357.777 272.421Z" fill="#F7AB20"/>
<path d="M360.707 196.887C360.707 196.887 351.895 230.375 352.055 272.515C352.058 273.284 352.597 273.947 353.349 274.105C354.457 274.339 356.085 274.616 357.433 274.577C358.153 274.557 358.755 274.023 358.875 273.313C360.111 266.068 367.202 225.249 371.241 218.623C371.241 218.623 373.899 254.978 373.049 273.839C373.027 274.308 373.371 274.714 373.838 274.769C374.546 274.85 375.677 274.913 377.117 274.76C377.664 274.702 378.104 274.288 378.183 273.744C379.063 267.612 384.128 231.111 383.913 204.818C383.9 203.335 379.992 196.887 379.992 196.887H360.706H360.707Z" fill="#000093"/>
<path d="M354.638 145.562C366.764 143.808 380.085 145.417 386.55 146.231C388.643 146.495 390.558 147.527 391.938 149.124C397.409 155.455 409.413 172.788 395.283 190.253C393.474 189.249 390.905 187.64 389.159 185.777C390.723 181.37 390.85 175.739 387.574 168.833C387.462 169.38 387.325 169.922 387.156 170.455C382.64 184.761 382.4 196.664 382.41 199.409C382.411 199.781 382.188 200.116 381.842 200.255C375.899 202.636 364.459 201.219 360.62 200.647C359.915 200.542 359.442 199.887 359.54 199.181C360.89 189.394 356.304 175.083 352.657 165.69C351.215 161.978 353.883 146.602 354.638 145.561V145.562Z" fill="#7AEBD9"/>
<path d="M373.966 131.336L375.641 145.177C375.717 145.804 375.33 146.399 374.723 146.576C372.906 147.108 369.016 147.912 365.461 146.449C364.786 146.172 364.414 145.441 364.568 144.728L366.685 134.987L373.966 131.336Z" fill="#F7AB20"/>
<path d="M363.112 121.499C363.007 121.691 360.767 135.9 360.767 135.9L368.908 137.007L373.033 123.854C373.033 123.854 364.862 118.304 363.112 121.498V121.499Z" fill="#F7AB20"/>
<path d="M370.016 125.163C370.247 125.447 370.333 125.819 370.252 126.176L368.646 133.167C368.622 133.273 368.585 133.374 368.532 133.47C368.241 133.994 367.18 135.591 365.574 134.41C364.205 133.404 362.934 132.499 361.827 132.315C361.181 132.208 360.575 132.658 360.476 133.306C360.27 134.64 359.911 137.34 359.927 139.784C359.931 140.397 360.412 140.899 361.023 140.942C362.636 141.056 365.791 141.183 368.402 140.715C368.831 140.638 369.18 140.332 369.316 139.919C369.912 138.096 371.603 132.995 372.301 131.629C372.95 130.359 374.841 130.142 375.715 130.113C376.046 130.101 376.356 129.954 376.573 129.703C377.225 128.951 378.243 127.275 376.28 125.637C375.791 125.23 375.733 124.495 376.13 123.999C376.841 123.109 377.46 121.672 375.936 120.166C374.392 118.643 372.648 119.029 371.542 119.544C371.052 119.772 370.448 119.674 370.098 119.262C369.942 119.079 369.711 118.956 369.371 118.995C368.727 119.069 368.151 118.645 368.073 118.002C367.939 116.9 367.347 115.603 365.396 115.231C361.817 114.55 360.042 118.135 360.114 120.651C360.185 123.167 364.107 123.685 366.331 123.26C367.965 122.949 369.381 124.38 370.019 125.163H370.016Z" fill="#141414"/>
<path d="M371.682 134.206C371.682 134.206 371.747 129.817 373.522 129.4C375.298 128.982 377.218 130.262 375.706 132.893C373.826 136.167 371.682 134.205 371.682 134.205V134.206Z" fill="#F7AB20"/>
<path d="M388.175 167.763C390.571 161.208 389.702 153.293 389.692 153.214L389.032 153.289C389.041 153.367 389.891 161.13 387.551 167.535L388.175 167.763Z" fill="#1E7B74"/>
<path d="M371.566 217.771C371.714 217.771 371.849 217.672 371.887 217.522C372.617 214.703 378.089 211.606 378.144 211.575C378.305 211.486 378.362 211.283 378.272 211.123C378.183 210.963 377.981 210.906 377.819 210.995C377.584 211.127 372.045 214.263 371.244 217.355C371.198 217.533 371.304 217.714 371.482 217.76C371.51 217.767 371.539 217.771 371.566 217.771Z" fill="url(#paint1_linear_1143_21248)"/>
<path d="M389.161 185.777C390.906 187.639 393.475 189.249 395.284 190.253C392.584 193.591 388.929 196.934 384.093 200.204L383.508 201.517C383.007 202.642 381.911 203.388 380.68 203.446C373.919 203.768 372.049 202.335 378.272 197.994C378.272 197.994 386.231 194.033 389.161 185.776V185.777Z" fill="#F7AB20"/>
<path d="M339.459 156.441C339.459 156.441 347.989 165.308 349.959 168.526C351.93 171.743 349.736 177.601 345.26 176.241C340.783 174.881 335.571 159.495 335.571 159.495L339.459 156.441Z" fill="#F7AB20"/>
<path d="M353.736 144.846C353.736 144.846 346.24 164.616 343.871 168.728C341.122 173.502 333.093 170.461 333.493 166.465C333.892 162.47 343.274 145.955 343.274 145.955L353.736 144.845V144.846Z" fill="#000093"/>
<path d="M343.608 130.445L297.017 114.29L297.505 158.007L344.881 147.435L343.608 130.445Z" fill="#3535F3"/>
<path d="M296.973 158.741C294.445 158.741 292.396 148.683 292.396 136.275C292.396 123.867 294.445 113.809 296.973 113.809C299.501 113.809 301.55 123.867 301.55 136.275C301.55 148.683 299.501 158.741 296.973 158.741Z" fill="#9999FF"/>
<path d="M296.625 157.204C297.038 156.784 297.939 155.161 298.713 150.963C299.46 146.906 299.871 141.645 299.871 136.148C299.871 130.652 299.46 125.39 298.713 121.334C297.94 117.136 297.039 115.513 296.625 115.093C296.211 115.513 295.31 117.136 294.537 121.334C293.79 125.391 293.379 130.652 293.379 136.148C293.379 141.645 293.79 146.907 294.537 150.963C295.309 155.161 296.21 156.784 296.625 157.204Z" fill="#3535F3"/>
<path d="M351.123 129.505C348.931 129.251 345.789 129.159 342.391 129.937C343.51 135.785 343.341 141.881 342.046 148.193H351.63C353.159 148.193 354.461 147.083 354.699 145.573C355.177 142.547 355.761 137.463 355.139 133.378C354.826 131.328 353.182 129.743 351.123 129.505Z" fill="#00004C"/>
<path d="M345.37 134.095H352.838C353.128 134.095 353.395 133.937 353.534 133.682C353.673 133.427 353.661 133.117 353.503 132.872C353.413 132.731 353.225 132.692 353.084 132.783C352.943 132.873 352.903 133.062 352.994 133.202C353.048 133.286 353.017 133.363 353.001 133.392C352.986 133.421 352.938 133.488 352.838 133.488H345.37C345.267 133.488 345.184 133.405 345.184 133.303V132.773C345.184 132.67 345.267 132.586 345.37 132.586H352.893C353.061 132.586 353.197 132.451 353.197 132.283C353.197 132.115 353.061 131.979 352.893 131.979H345.37C344.933 131.979 344.578 132.335 344.578 132.771V133.302C344.578 133.739 344.934 134.094 345.37 134.094V134.095Z" fill="#9999FF"/>
<path d="M346.037 137.402H353.504C353.794 137.402 354.061 137.244 354.2 136.989C354.339 136.734 354.328 136.423 354.169 136.179C354.078 136.038 353.891 135.998 353.75 136.089C353.609 136.18 353.569 136.367 353.659 136.508C353.714 136.592 353.682 136.669 353.666 136.699C353.651 136.727 353.603 136.795 353.503 136.795H346.035C345.933 136.795 345.849 136.712 345.849 136.61V136.079C345.849 135.977 345.933 135.893 346.035 135.893H353.558C353.726 135.893 353.862 135.757 353.862 135.59C353.862 135.422 353.726 135.286 353.558 135.286H346.035C345.598 135.286 345.242 135.642 345.242 136.079V136.61C345.242 137.047 345.598 137.402 346.035 137.402H346.037Z" fill="#9999FF"/>
<path d="M336.838 129.373C336.966 129.373 337.086 129.291 337.127 129.162C337.177 129.003 337.089 128.832 336.929 128.781L301.641 117.552C301.482 117.5 301.311 117.59 301.26 117.749C301.209 117.909 301.297 118.08 301.457 118.131L336.745 129.36C336.776 129.369 336.807 129.374 336.837 129.374L336.838 129.373Z" fill="#91B3FA"/>
<path d="M341.61 131.323C341.729 131.323 341.843 131.253 341.89 131.135C341.954 130.98 341.879 130.803 341.725 130.739L339.908 129.997C339.753 129.933 339.576 130.008 339.512 130.162C339.449 130.318 339.524 130.494 339.678 130.558L341.494 131.301C341.531 131.316 341.57 131.323 341.609 131.323H341.61Z" fill="#91B3FA"/>
<path d="M345.37 141.276H352.837C353.127 141.276 353.395 141.117 353.534 140.862C353.673 140.607 353.661 140.297 353.503 140.053C353.411 139.912 353.224 139.872 353.083 139.962C352.942 140.054 352.902 140.241 352.993 140.382C353.047 140.465 353.015 140.542 353 140.571C352.985 140.6 352.936 140.668 352.836 140.668H345.369C345.266 140.668 345.183 140.585 345.183 140.482V139.951C345.183 139.849 345.266 139.765 345.369 139.765H352.892C353.06 139.765 353.195 139.629 353.195 139.461C353.195 139.294 353.06 139.158 352.892 139.158H345.369C344.932 139.158 344.577 139.514 344.577 139.95V140.481C344.577 140.918 344.933 141.273 345.369 141.273L345.37 141.276Z" fill="#9999FF"/>
<path d="M344.672 145.575H352.139C352.429 145.575 352.697 145.417 352.836 145.162C352.974 144.907 352.963 144.597 352.805 144.352C352.713 144.211 352.526 144.171 352.385 144.262C352.244 144.353 352.204 144.541 352.294 144.682C352.349 144.765 352.317 144.842 352.302 144.872C352.285 144.901 352.238 144.968 352.138 144.968H344.671C344.569 144.968 344.485 144.885 344.485 144.782V144.251C344.485 144.149 344.568 144.064 344.671 144.064H352.194C352.361 144.064 352.497 143.929 352.497 143.761C352.497 143.593 352.361 143.458 352.194 143.458H344.671C344.234 143.458 343.879 143.813 343.879 144.25V144.781C343.879 145.218 344.235 145.573 344.671 145.573L344.672 145.575Z" fill="#9999FF"/>
<path d="M338.002 168.951C338.353 168.951 338.709 168.913 339.064 168.835C340.617 168.497 341.881 167.473 342.533 166.025L348.499 152.77C348.568 152.618 348.499 152.438 348.347 152.369C348.195 152.3 348.015 152.369 347.946 152.521L341.98 165.775C341.408 167.046 340.298 167.945 338.935 168.241C337.596 168.532 336.242 168.186 335.217 167.291C335.162 167.242 335.106 167.192 335.05 167.14C334.926 167.027 334.735 167.035 334.621 167.159C334.507 167.282 334.516 167.475 334.639 167.588C334.699 167.642 334.758 167.696 334.817 167.747C335.715 168.533 336.836 168.949 338 168.949L338.002 168.951Z" fill="#9999FF"/>
<path d="M349.105 150.99C349.22 150.99 349.331 150.923 349.381 150.811L350.047 149.331C350.116 149.179 350.047 148.999 349.895 148.93C349.743 148.861 349.563 148.93 349.494 149.083L348.828 150.562C348.759 150.714 348.828 150.894 348.98 150.963C349.02 150.981 349.063 150.99 349.105 150.99Z" fill="#9999FF"/>
<path d="M342.689 151.343C342.689 151.343 340.258 149.28 338.36 151.343C336.46 153.407 336.084 157.007 336.471 157.183C336.858 157.358 348.601 154.442 342.689 151.343Z" fill="#F7AB20"/>
<path d="M79 54.9996C79 56.6178 78.3595 58.0858 77.3185 59.1646C76.5845 59.9258 75.6513 60.4931 74.6027 60.7827C74.0927 60.9246 73.5548 61 72.9996 61C72.5168 61 72.0468 60.9427 71.5965 60.8348C70.4664 60.564 69.4608 59.974 68.6815 59.1646C67.6397 58.0858 67 56.617 67 54.9996C67 51.6864 69.6864 49 72.9996 49C76.3129 49 79 51.6864 79 54.9996Z" fill="#7AEBD9"/>
<path d="M426 251C426 252.618 425.36 254.086 424.318 255.165C423.584 255.926 422.651 256.493 421.603 256.783C421.093 256.925 420.555 257 420 257C419.517 257 419.047 256.943 418.596 256.835C417.466 256.564 416.461 255.974 415.682 255.165C414.64 254.086 414 252.617 414 251C414 247.686 416.686 245 420 245C423.313 245 426 247.686 426 251Z" fill="#7AEBD9"/>
<path d="M471.043 144.459C471.043 146.077 470.402 147.546 469.362 148.625C468.271 149.756 466.739 150.459 465.043 150.459C463.347 150.459 461.815 149.756 460.724 148.624C459.683 147.546 459.043 146.077 459.043 144.459C459.043 141.146 461.729 138.459 465.043 138.459C468.357 138.459 471.043 141.146 471.043 144.459Z" fill="#F7AB20"/>
<path d="M42.043 219.459C42.043 221.616 41.189 223.575 39.8019 225.013C38.3465 226.522 36.3046 227.459 34.0435 227.459C31.7823 227.459 29.7395 226.521 28.285 225.012C26.8959 223.575 26.043 221.616 26.043 219.459C26.043 215.042 29.6248 211.459 34.0435 211.459C38.4622 211.459 42.043 215.042 42.043 219.459Z" fill="#FFD947"/>
<circle cx="117.043" cy="262.459" r="4" fill="#9999FF"/>
<path d="M411.043 29.4595C411.043 30.2682 410.723 31.0027 410.203 31.5421C409.657 32.1079 408.891 32.4595 408.043 32.4595C407.195 32.4595 406.429 32.1075 405.884 31.5417C405.363 31.0027 405.043 30.2682 405.043 29.4595C405.043 27.8027 406.386 26.4595 408.043 26.4595C409.7 26.4595 411.043 27.8027 411.043 29.4595Z" fill="#CECEFF"/>
<path d="M258 68C239.222 68 224 52.7777 224 34C224 15.2223 239.222 4.61397e-06 258 2.97237e-06C276.778 1.33078e-06 292 15.2223 292 34C292 52.7777 276.778 68 258 68Z" fill="#3535F3"/>
<path d="M291 34C291 42.8963 287.477 50.9751 281.756 56.9087C275.752 63.1328 267.329 67 258.002 67C248.675 67 240.248 63.1286 234.248 56.9046C228.518 50.9751 225 42.8963 225 34C225 15.7759 239.775 1 258.002 1C276.229 1 291 15.7759 291 34Z" fill="white"/>
<rect x="248" y="17" width="18.9429" height="32.5993" rx="4" fill="#3535F3"/>
<rect x="249.983" y="18.9824" width="14.9781" height="26.8724" rx="2" fill="white"/>
<path d="M258 186C239.222 186 224 170.778 224 152C224 133.222 239.222 118 258 118C276.778 118 292 133.222 292 152C292 170.778 276.778 186 258 186Z" fill="#3535F3"/>
<path d="M291 152C291 160.896 287.477 168.975 281.756 174.909C275.752 181.133 267.329 185 258.002 185C248.675 185 240.248 181.129 234.248 174.905C228.518 168.975 225 160.896 225 152C225 133.776 239.775 119 258.002 119C276.229 119 291 133.776 291 152Z" fill="white"/>
<rect x="238.528" y="152.729" width="36.8857" height="5.68571" rx="2.84286" fill="#3535F3" stroke="#3535F3"/>
<circle cx="242.486" cy="155.571" r="1.11429" fill="white"/>
<path d="M272.208 136.793C272.607 135.763 272.095 134.605 271.065 134.206C270.035 133.807 268.877 134.319 268.478 135.349L272.208 136.793ZM265.522 154.065L272.208 136.793L268.478 135.349L261.792 152.621L265.522 154.065Z" fill="#3535F3"/>
<path d="M200 124C181.222 124 166 108.778 166 90C166 71.2223 181.222 56 200 56C218.778 56 234 71.2223 234 90C234 108.778 218.778 124 200 124Z" fill="#3535F3"/>
<path d="M233 90C233 98.8963 229.477 106.975 223.756 112.909C217.752 119.133 209.329 123 200.002 123C190.675 123 182.248 119.129 176.248 112.905C170.518 106.975 167 98.8963 167 90C167 71.7759 181.775 57 200.002 57C218.229 57 233 71.7759 233 90Z" fill="white"/>
<rect x="183" y="76" width="34" height="22" rx="6" fill="#3535F3"/>
<rect x="185" y="78" width="30" height="18" rx="4" fill="white"/>
<rect x="189.686" y="100.514" width="20.0571" height="2.78571" rx="1.39286" fill="#3535F3"/>
<mask id="mask0_1143_21248" style="mask-type:luminance" maskUnits="userSpaceOnUse" x="287" y="115" width="13" height="43">
<path d="M296.625 157.204C297.038 156.784 297.939 155.161 298.713 150.963C299.46 146.906 299.871 141.645 299.871 136.148C299.871 130.652 299.46 125.39 298.713 121.334C297.94 117.136 297.039 115.513 296.625 115.093C296.211 115.513 295.31 117.136 294.537 121.334C293.79 125.391 287.898 130.652 287.898 136.148C287.898 141.645 293.79 146.907 294.537 150.963C295.309 155.161 296.21 156.784 296.625 157.204Z" fill="white"/>
</mask>
<g mask="url(#mask0_1143_21248)">
<path d="M290.758 135.981C290.758 139.798 292.814 142.893 296.884 142.893C300.954 142.893 304.254 139.799 304.254 135.981C304.254 132.163 300.954 129.069 296.884 129.069C292.814 129.069 290.758 132.164 290.758 135.981Z" fill="#000093"/>
</g>
<path d="M291.849 135.893C292.007 135.893 292.141 135.771 292.152 135.611C292.282 133.777 292.915 132.41 294.032 131.55C295.969 130.06 298.755 130.569 298.784 130.576C298.949 130.606 299.108 130.499 299.139 130.335C299.171 130.17 299.063 130.012 298.898 129.98C298.774 129.956 295.822 129.411 293.666 131.066C292.403 132.036 291.69 133.55 291.547 135.568C291.535 135.735 291.661 135.881 291.828 135.892C291.835 135.892 291.842 135.892 291.849 135.892V135.893Z" fill="#6464FF"/>
<rect x="297" y="81" width="12" height="16" rx="3" stroke="#3535F3" stroke-width="2"/>
<rect x="313" y="76" width="18" height="11" rx="3" stroke="#3535F3" stroke-width="2"/>
<rect x="313" y="92" width="18" height="13" rx="3" stroke="#3535F3" stroke-width="2"/>
<path d="M121.08 37.944V40.84H118.008V49H114.52V40.84H111.448V37.944H121.08ZM124.267 40.696L125.467 45.752H125.499L126.731 40.696H129.963L127.307 49H123.547L120.923 40.696H124.267Z" fill="#1ECCB0"/>
<path d="M53.792 193.704C53.7173 193.299 53.5307 192.995 53.232 192.792C52.9333 192.589 52.5867 192.488 52.192 192.488C51.52 192.488 51.0027 192.744 50.64 193.256C50.288 193.768 50.112 194.504 50.112 195.464C50.112 196.392 50.288 197.123 50.64 197.656C50.992 198.189 51.4987 198.456 52.16 198.456C52.608 198.456 52.976 198.339 53.264 198.104C53.5627 197.869 53.744 197.517 53.808 197.048H57.312C57.2693 197.837 57.0187 198.552 56.56 199.192C56.112 199.832 55.5093 200.339 54.752 200.712C53.9947 201.075 53.152 201.256 52.224 201.256C51.0933 201.256 50.1013 201.011 49.248 200.52C48.4053 200.029 47.7547 199.347 47.296 198.472C46.848 197.597 46.624 196.595 46.624 195.464C46.624 194.312 46.8587 193.299 47.328 192.424C47.808 191.549 48.4747 190.877 49.328 190.408C50.1813 189.928 51.1627 189.688 52.272 189.688C53.7227 189.688 54.8693 190.024 55.712 190.696C56.5547 191.368 57.0613 192.371 57.232 193.704H53.792ZM61.6346 190.12C61.6346 190.408 61.56 190.669 61.4106 190.904C61.272 191.128 61.0746 191.309 60.8186 191.448C60.5626 191.576 60.2746 191.64 59.9546 191.64C59.6346 191.64 59.3466 191.576 59.0906 191.448C58.8346 191.309 58.632 191.128 58.4826 190.904C58.344 190.669 58.2746 190.408 58.2746 190.12C58.2746 189.832 58.344 189.576 58.4826 189.352C58.632 189.117 58.8346 188.936 59.0906 188.808C59.3466 188.669 59.6346 188.6 59.9546 188.6C60.2746 188.6 60.5626 188.669 60.8186 188.808C61.0746 188.936 61.272 189.117 61.4106 189.352C61.56 189.576 61.6346 189.832 61.6346 190.12ZM61.5386 192.696V201H58.3706V192.696H61.5386ZM71.3844 201H68.2164V196.408C68.2164 195.928 68.1257 195.576 67.9444 195.352C67.7737 195.128 67.5124 195.016 67.1604 195.016C66.7977 195.016 66.5257 195.128 66.3444 195.352C66.163 195.576 66.0724 195.928 66.0724 196.408V201H62.9044V192.696H65.9764V193.752H65.9924C66.291 193.325 66.6537 193.011 67.0804 192.808C67.5177 192.595 68.035 192.488 68.6324 192.488C69.155 192.488 69.6244 192.605 70.0404 192.84C70.467 193.075 70.7977 193.4 71.0324 193.816C71.267 194.232 71.3844 194.707 71.3844 195.24V201ZM81.2507 197.56H75.3467C75.3681 198.083 75.5121 198.483 75.7787 198.76C76.0561 199.037 76.4294 199.176 76.8987 199.176C77.2187 199.176 77.4907 199.128 77.7147 199.032C77.9494 198.936 78.1094 198.787 78.1947 198.584H81.0747C80.8294 199.416 80.3281 200.061 79.5707 200.52C78.8241 200.979 77.8801 201.208 76.7387 201.208C75.8854 201.208 75.1227 201.043 74.4507 200.712C73.7894 200.371 73.2667 199.875 72.8827 199.224C72.5094 198.573 72.3227 197.789 72.3227 196.872C72.3227 196.072 72.5041 195.341 72.8667 194.68C73.2401 194.008 73.7627 193.475 74.4347 193.08C75.1067 192.685 75.8801 192.488 76.7547 192.488C78.2481 192.488 79.3681 192.904 80.1147 193.736C80.8721 194.568 81.2507 195.832 81.2507 197.528V197.56ZM78.2267 195.912C78.2374 195.645 78.1841 195.411 78.0667 195.208C77.9601 194.995 77.8001 194.829 77.5867 194.712C77.3841 194.584 77.1441 194.52 76.8667 194.52C76.4401 194.52 76.0934 194.637 75.8267 194.872C75.5707 195.107 75.4107 195.453 75.3467 195.912H78.2267ZM90.0515 193.784C90.4142 193.315 90.8195 192.984 91.2675 192.792C91.7155 192.589 92.2382 192.488 92.8355 192.488C93.3795 192.488 93.8595 192.605 94.2755 192.84C94.6915 193.064 95.0115 193.389 95.2355 193.816C95.4595 194.232 95.5715 194.723 95.5715 195.288V201H92.4035V196.296C92.4142 195.848 92.3395 195.523 92.1795 195.32C92.0195 195.117 91.7742 195.016 91.4435 195.016C91.1235 195.016 90.8728 195.123 90.6915 195.336C90.5208 195.539 90.4355 195.859 90.4355 196.296V201H87.2835V196.296C87.2835 195.859 87.2035 195.539 87.0435 195.336C86.8835 195.123 86.6435 195.016 86.3235 195.016C85.6515 195.016 85.3155 195.443 85.3155 196.296V201H82.1475V192.696H85.2035V193.8H85.2355C85.5235 193.352 85.8808 193.021 86.3075 192.808C86.7448 192.595 87.2728 192.488 87.8915 192.488C88.3288 192.488 88.7502 192.605 89.1555 192.84C89.5715 193.075 89.8702 193.389 90.0515 193.784ZM101.751 195.608C101.751 195.277 101.714 195.021 101.639 194.84C101.564 194.659 101.452 194.536 101.303 194.472C101.154 194.397 100.951 194.36 100.695 194.36C100.354 194.36 100.098 194.429 99.927 194.568C99.767 194.707 99.6817 194.872 99.671 195.064H96.743C96.8497 194.211 97.2283 193.571 97.879 193.144C98.5403 192.707 99.559 192.488 100.935 192.488C101.863 192.488 102.604 192.611 103.159 192.856C103.724 193.091 104.135 193.459 104.391 193.96C104.658 194.461 104.791 195.117 104.791 195.928V201H101.975L101.831 200.12H101.799C101.532 200.461 101.196 200.728 100.791 200.92C100.386 201.112 99.863 201.208 99.223 201.208C98.647 201.208 98.1403 201.107 97.703 200.904C97.2763 200.691 96.9457 200.387 96.711 199.992C96.4763 199.597 96.359 199.128 96.359 198.584C96.359 197.699 96.7163 197.032 97.431 196.584C98.1563 196.136 99.191 195.912 100.535 195.912H101.751V195.608ZM100.919 197.336C100.535 197.336 100.22 197.421 99.975 197.592C99.7297 197.763 99.607 198.003 99.607 198.312C99.607 198.632 99.6977 198.877 99.879 199.048C100.06 199.208 100.29 199.288 100.567 199.288C100.94 199.288 101.228 199.171 101.431 198.936C101.644 198.701 101.751 198.371 101.751 197.944V197.336H100.919Z" fill="#9999FF"/>
<path d="M163.392 141.944L167.392 153H163.776L163.376 151.496H159.856L159.424 153H155.936L160 141.944H163.392ZM161.68 145.336L160.56 149.08H162.736L161.712 145.336H161.68ZM176.192 153H173.136V152.088H173.104C172.826 152.493 172.501 152.781 172.128 152.952C171.754 153.123 171.301 153.208 170.768 153.208C170.053 153.208 169.44 153 168.928 152.584C168.426 152.168 168.042 151.624 167.776 150.952C167.52 150.269 167.392 149.549 167.392 148.792C167.392 147.917 167.52 147.16 167.776 146.52C168.042 145.869 168.426 145.368 168.928 145.016C169.44 144.664 170.058 144.488 170.784 144.488C171.242 144.488 171.658 144.584 172.032 144.776C172.416 144.968 172.736 145.245 172.992 145.608H173.024V141.576H176.192V153ZM171.84 150.904C172.256 150.904 172.576 150.733 172.8 150.392C173.024 150.04 173.136 149.523 173.136 148.84C173.136 148.157 173.024 147.645 172.8 147.304C172.576 146.963 172.25 146.792 171.824 146.792C171.429 146.792 171.12 146.963 170.896 147.304C170.672 147.645 170.56 148.157 170.56 148.84C170.56 149.523 170.666 150.04 170.88 150.392C171.104 150.733 171.424 150.904 171.84 150.904ZM182.107 146.968C182.096 146.755 181.995 146.584 181.803 146.456C181.611 146.317 181.382 146.248 181.115 146.248C180.528 146.248 180.235 146.451 180.235 146.856C180.235 147.005 180.283 147.133 180.379 147.24C180.486 147.347 180.635 147.421 180.827 147.464L182.219 147.736C183.264 147.939 184.022 148.243 184.491 148.648C184.971 149.053 185.211 149.603 185.211 150.296C185.211 151.256 184.854 151.981 184.139 152.472C183.424 152.963 182.422 153.208 181.131 153.208C180.363 153.208 179.67 153.107 179.051 152.904C178.443 152.701 177.958 152.397 177.595 151.992C177.232 151.576 177.046 151.069 177.035 150.472H180.059C180.112 150.995 180.48 151.256 181.163 151.256C181.835 151.256 182.171 151.053 182.171 150.648C182.171 150.424 182.07 150.259 181.867 150.152C181.664 150.035 181.328 149.928 180.859 149.832L179.755 149.608C178.88 149.437 178.235 149.149 177.819 148.744C177.403 148.328 177.195 147.795 177.195 147.144C177.195 146.515 177.382 146.003 177.755 145.608C178.139 145.213 178.619 144.931 179.195 144.76C179.782 144.579 180.395 144.488 181.035 144.488C182.262 144.488 183.216 144.696 183.899 145.112C184.592 145.528 184.95 146.147 184.971 146.968H182.107Z" fill="#3535F3"/>
<path d="M426.512 121C426.501 120.744 426.368 120.541 426.112 120.392C425.867 120.243 425.557 120.168 425.184 120.168C424.811 120.168 424.512 120.232 424.288 120.36C424.075 120.477 423.968 120.648 423.968 120.872C423.968 121.064 424.08 121.245 424.304 121.416C424.539 121.587 424.944 121.741 425.52 121.88L426.368 122.088C427.349 122.333 428.117 122.611 428.672 122.92C429.237 123.229 429.637 123.592 429.872 124.008C430.117 124.413 430.24 124.893 430.24 125.448C430.24 126.269 430.027 126.968 429.6 127.544C429.173 128.109 428.571 128.536 427.792 128.824C427.024 129.112 426.133 129.256 425.12 129.256C424.235 129.256 423.419 129.107 422.672 128.808C421.925 128.509 421.333 128.093 420.896 127.56C420.459 127.027 420.24 126.413 420.24 125.72V125.656H423.744V125.688C423.744 125.88 423.803 126.061 423.92 126.232C424.037 126.392 424.213 126.525 424.448 126.632C424.693 126.728 424.981 126.776 425.312 126.776C425.76 126.776 426.112 126.701 426.368 126.552C426.624 126.403 426.752 126.189 426.752 125.912C426.752 125.731 426.693 125.581 426.576 125.464C426.469 125.336 426.299 125.224 426.064 125.128C425.84 125.021 425.52 124.909 425.104 124.792L423.616 124.36C422.624 124.072 421.883 123.672 421.392 123.16C420.912 122.648 420.672 122.003 420.672 121.224C420.672 120.467 420.869 119.821 421.264 119.288C421.659 118.755 422.203 118.355 422.896 118.088C423.589 117.821 424.379 117.688 425.264 117.688C426.704 117.688 427.803 117.976 428.56 118.552C429.328 119.128 429.739 119.944 429.792 121H426.512ZM440.069 117.944V120.84H436.997V129H433.509V120.84H430.437V117.944H440.069ZM447.176 117.944C447.891 117.944 448.504 118.056 449.016 118.28C449.539 118.504 449.933 118.829 450.2 119.256C450.477 119.672 450.616 120.157 450.616 120.712C450.616 121.213 450.504 121.635 450.28 121.976C450.067 122.317 449.725 122.616 449.256 122.872V122.904C449.885 123.117 450.36 123.453 450.68 123.912C451.011 124.371 451.176 124.941 451.176 125.624C451.176 126.296 451 126.888 450.648 127.4C450.307 127.912 449.843 128.307 449.256 128.584C448.669 128.861 448.029 129 447.336 129H440.968V117.944H447.176ZM446.248 122.328C446.632 122.328 446.904 122.259 447.064 122.12C447.235 121.981 447.32 121.741 447.32 121.4C447.32 121.08 447.224 120.84 447.032 120.68C446.84 120.52 446.579 120.44 446.248 120.44H444.456V122.328H446.248ZM446.44 126.504C446.856 126.504 447.165 126.403 447.368 126.2C447.581 125.987 447.688 125.688 447.688 125.304C447.688 124.952 447.587 124.685 447.384 124.504C447.192 124.323 446.925 124.232 446.584 124.232H444.456V126.504H446.44Z" fill="#F7AB20"/>
<defs>
<linearGradient id="paint0_linear_1143_21248" x1="253.922" y1="-19.9023" x2="275.958" y2="264.492" gradientUnits="userSpaceOnUse">
<stop stop-color="#53D8FF"/>
<stop offset="1" stop-color="#3840F7"/>
</linearGradient>
<linearGradient id="paint1_linear_1143_21248" x1="397.296" y1="247.173" x2="429.515" y2="294.108" gradientUnits="userSpaceOnUse">
<stop stop-color="#09005D"/>
<stop offset="1" stop-color="#1A0F91"/>
</linearGradient>
</defs>
</svg>
